<svg width="25" height="24" viewBox="0 0 25 24" fill="none" xmlns="http://www.w3.org/2000/svg">
	<mask id="mask0_29_118" style="mask-type:alpha" maskUnits="userSpaceOnUse" x="0" y="0" width="25" height="24">
		<rect x="0.5" width="24" height="24" fill="#D9D9D9" />
	</mask>
	<g mask="url(#mask0_29_118)">
		<path d="M12.5 22C10.2667 22 8.375 21.225 6.825 19.675C5.275 18.125 4.5 16.2333 4.5 14C4.5 12.1167 5.05833 10.3083 6.175 8.57501C7.29167 6.84167 8.825 5.32501 10.775 4.02501C11.1417 3.77501 11.5208 3.76251 11.9125 3.98751C12.3042 4.21251 12.5 4.55001 12.5 5.00001V6.30001C12.5 6.86667 12.6958 7.34167 13.0875 7.72501C13.4792 8.10834 13.9583 8.30001 14.525 8.30001C14.8083 8.30001 15.0792 8.23751 15.3375 8.11251C15.5958 7.98751 15.825 7.80834 16.025 7.57501C16.1583 7.40834 16.3292 7.30417 16.5375 7.26251C16.7458 7.22084 16.9417 7.26667 17.125 7.40001C18.175 8.15001 19 9.10834 19.6 10.275C20.2 11.4417 20.5 12.6833 20.5 14C20.5 16.2333 19.725 18.125 18.175 19.675C16.625 21.225 14.7333 22 12.5 22ZM6.5 14C6.5 14.8667 6.675 15.6875 7.025 16.4625C7.375 17.2375 7.875 17.9167 8.525 18.5C8.50833 18.4167 8.5 18.3417 8.5 18.275V18.05C8.5 17.5167 8.6 17.0167 8.8 16.55C9 16.0833 9.29167 15.6583 9.675 15.275L12.5 12.5L15.325 15.275C15.7083 15.6583 16 16.0833 16.2 16.55C16.4 17.0167 16.5 17.5167 16.5 18.05V18.275C16.5 18.3417 16.4917 18.4167 16.475 18.5C17.125 17.9167 17.625 17.2375 17.975 16.4625C18.325 15.6875 18.5 14.8667 18.5 14C18.5 13.1667 18.3458 12.3792 18.0375 11.6375C17.7292 10.8958 17.2833 10.2333 16.7 9.65001C16.3667 9.86667 16.0167 10.0292 15.65 10.1375C15.2833 10.2458 14.9083 10.3 14.525 10.3C13.4917 10.3 12.5958 9.95834 11.8375 9.27501C11.0792 8.59167 10.6417 7.75001 10.525 6.75001C9.225 7.85001 8.22917 9.02084 7.5375 10.2625C6.84583 11.5042 6.5 12.75 6.5 14ZM12.5 15.3L11.075 16.7C10.8917 16.8833 10.75 17.0917 10.65 17.325C10.55 17.5583 10.5 17.8 10.5 18.05C10.5 18.5833 10.6958 19.0417 11.0875 19.425C11.4792 19.8083 11.95 20 12.5 20C13.05 20 13.5208 19.8083 13.9125 19.425C14.3042 19.0417 14.5 18.5833 14.5 18.05C14.5 17.7833 14.45 17.5375 14.35 17.3125C14.25 17.0875 14.1083 16.8833 13.925 16.7L12.5 15.3Z" fill="white" />
	</g>
</svg>
