<svg width="24" height="24" viewBox="0 0 24 24" fill="none" xmlns="http://www.w3.org/2000/svg">
	<mask id="mask0_145_110" style="mask-type:alpha" maskUnits="userSpaceOnUse" x="0" y="0" width="24" height="24">
		<rect width="24" height="24" fill="white" />
	</mask>
	<g mask="url(#mask0_145_110)">
		<path d="M11.875 20C11.9417 20 12.0083 19.9833 12.075 19.95C12.1417 19.9167 12.1917 19.8833 12.225 19.85L20.425 11.65C20.625 11.45 20.7708 11.225 20.8625 10.975C20.9542 10.725 21 10.475 21 10.225C21 9.95833 20.9542 9.70417 20.8625 9.4625C20.7708 9.22083 20.625 9.00833 20.425 8.825L16.175 4.575C15.9917 4.375 15.7792 4.22917 15.5375 4.1375C15.2958 4.04583 15.0417 4 14.775 4C14.525 4 14.275 4.04583 14.025 4.1375C13.775 4.22917 13.55 4.375 13.35 4.575L13.075 4.85L14.925 6.725C15.175 6.95833 15.3583 7.225 15.475 7.525C15.5917 7.825 15.65 8.14167 15.65 8.475C15.65 9.175 15.4125 9.7625 14.9375 10.2375C14.4625 10.7125 13.875 10.95 13.175 10.95C12.8417 10.95 12.5208 10.8917 12.2125 10.775C11.9042 10.6583 11.6333 10.4833 11.4 10.25L9.52501 8.4L5.15001 12.775C5.10001 12.825 5.06251 12.8792 5.03751 12.9375C5.01251 12.9958 5.00001 13.0583 5.00001 13.125C5.00001 13.2583 5.05001 13.3792 5.15001 13.4875C5.25001 13.5958 5.36667 13.65 5.50001 13.65C5.56667 13.65 5.63334 13.6333 5.70001 13.6C5.76667 13.5667 5.81667 13.5333 5.85001 13.5L8.55001 10.8C8.73334 10.6167 8.96251 10.5208 9.23751 10.5125C9.51251 10.5042 9.75001 10.6 9.95001 10.8C10.1333 10.9833 10.225 11.2167 10.225 11.5C10.225 11.7833 10.1333 12.0167 9.95001 12.2L7.27501 14.9C7.22501 14.95 7.18751 15.0042 7.16251 15.0625C7.13751 15.1208 7.12501 15.1833 7.12501 15.25C7.12501 15.3833 7.17501 15.5 7.27501 15.6C7.37501 15.7 7.49167 15.75 7.62501 15.75C7.69167 15.75 7.75834 15.7333 7.82501 15.7C7.89167 15.6667 7.94167 15.6333 7.97501 15.6L10.675 12.925C10.8583 12.7417 11.0875 12.6458 11.3625 12.6375C11.6375 12.6292 11.875 12.725 12.075 12.925C12.2583 13.1083 12.35 13.3417 12.35 13.625C12.35 13.9083 12.2583 14.1417 12.075 14.325L9.40001 17.025C9.35001 17.0583 9.31251 17.1083 9.28751 17.175C9.26251 17.2417 9.25001 17.3083 9.25001 17.375C9.25001 17.5083 9.30001 17.625 9.40001 17.725C9.50001 17.825 9.61667 17.875 9.75001 17.875C9.81667 17.875 9.87917 17.8625 9.93751 17.8375C9.99584 17.8125 10.05 17.775 10.1 17.725L12.8 15.05C12.9833 14.8667 13.2125 14.7708 13.4875 14.7625C13.7625 14.7542 14 14.85 14.2 15.05C14.3833 15.2333 14.475 15.4667 14.475 15.75C14.475 16.0333 14.3833 16.2667 14.2 16.45L11.5 19.15C11.45 19.2 11.4125 19.2542 11.3875 19.3125C11.3625 19.3708 11.35 19.4333 11.35 19.5C11.35 19.6333 11.4042 19.75 11.5125 19.85C11.6208 19.95 11.7417 20 11.875 20ZM11.85 22C11.2333 22 10.6875 21.7958 10.2125 21.3875C9.73751 20.9792 9.45834 20.4667 9.37501 19.85C8.80834 19.7667 8.33334 19.5333 7.95001 19.15C7.56667 18.7667 7.33334 18.2917 7.25001 17.725C6.68334 17.6417 6.21251 17.4042 5.83751 17.0125C5.46251 16.6208 5.23334 16.15 5.15001 15.6C4.51667 15.5167 4.00001 15.2417 3.60001 14.775C3.20001 14.3083 3.00001 13.7583 3.00001 13.125C3.00001 12.7917 3.06251 12.4708 3.18751 12.1625C3.31251 11.8542 3.49167 11.5833 3.72501 11.35L8.10001 6.975C8.48334 6.59167 8.95417 6.4 9.51251 6.4C10.0708 6.4 10.5417 6.59167 10.925 6.975L12.8 8.85C12.8333 8.9 12.8833 8.9375 12.95 8.9625C13.0167 8.9875 13.0833 9 13.15 9C13.3 9 13.425 8.95417 13.525 8.8625C13.625 8.77083 13.675 8.65 13.675 8.5C13.675 8.43333 13.6625 8.36667 13.6375 8.3C13.6125 8.23333 13.575 8.18333 13.525 8.15L9.95001 4.575C9.76667 4.375 9.55417 4.22917 9.31251 4.1375C9.07084 4.04583 8.81667 4 8.55001 4C8.30001 4 8.05001 4.04583 7.80001 4.1375C7.55001 4.22917 7.32501 4.375 7.12501 4.575L3.60001 8.125C3.45001 8.275 3.32501 8.45 3.22501 8.65C3.12501 8.85 3.05834 9.05 3.02501 9.25C2.99167 9.45 2.99167 9.65417 3.02501 9.8625C3.05834 10.0708 3.12501 10.2667 3.22501 10.45L1.77501 11.9C1.49167 11.5167 1.28334 11.0958 1.15001 10.6375C1.01667 10.1792 0.966672 9.71667 1.00001 9.25C1.03334 8.78333 1.15001 8.32917 1.35001 7.8875C1.55001 7.44583 1.82501 7.05 2.17501 6.7L5.70001 3.175C6.10001 2.79167 6.54584 2.5 7.03751 2.3C7.52917 2.1 8.03334 2 8.55001 2C9.06667 2 9.57084 2.1 10.0625 2.3C10.5542 2.5 10.9917 2.79167 11.375 3.175L11.65 3.45L11.925 3.175C12.325 2.79167 12.7708 2.5 13.2625 2.3C13.7542 2.1 14.2583 2 14.775 2C15.2917 2 15.7958 2.1 16.2875 2.3C16.7792 2.5 17.2167 2.79167 17.6 3.175L21.825 7.4C22.2083 7.78333 22.5 8.225 22.7 8.725C22.9 9.225 23 9.73333 23 10.25C23 10.7667 22.9 11.2708 22.7 11.7625C22.5 12.2542 22.2083 12.6917 21.825 13.075L13.625 21.25C13.3917 21.4833 13.1208 21.6667 12.8125 21.8C12.5042 21.9333 12.1833 22 11.85 22Z" fill="white" />
	</g>
</svg>
