<svg width="25" height="24" viewBox="0 0 25 24" fill="none" xmlns="http://www.w3.org/2000/svg">
	<mask id="mask0_3_640" style="mask-type:alpha" maskUnits="userSpaceOnUse" x="0" y="0" width="25" height="24">
		<rect x="0.5" width="24" height="24" fill="#D9D9D9" />
	</mask>
	<g mask="url(#mask0_3_640)">
		<path d="M6.5 19H9.5V14C9.5 13.7167 9.59583 13.4792 9.7875 13.2875C9.97917 13.0958 10.2167 13 10.5 13H14.5C14.7833 13 15.0208 13.0958 15.2125 13.2875C15.4042 13.4792 15.5 13.7167 15.5 14V19H18.5V10L12.5 5.5L6.5 10V19ZM4.5 19V10C4.5 9.68333 4.57083 9.38333 4.7125 9.1C4.85417 8.81667 5.05 8.58333 5.3 8.4L11.3 3.9C11.65 3.63333 12.05 3.5 12.5 3.5C12.95 3.5 13.35 3.63333 13.7 3.9L19.7 8.4C19.95 8.58333 20.1458 8.81667 20.2875 9.1C20.4292 9.38333 20.5 9.68333 20.5 10V19C20.5 19.55 20.3042 20.0208 19.9125 20.4125C19.5208 20.8042 19.05 21 18.5 21H14.5C14.2167 21 13.9792 20.9042 13.7875 20.7125C13.5958 20.5208 13.5 20.2833 13.5 20V15H11.5V20C11.5 20.2833 11.4042 20.5208 11.2125 20.7125C11.0208 20.9042 10.7833 21 10.5 21H6.5C5.95 21 5.47917 20.8042 5.0875 20.4125C4.69583 20.0208 4.5 19.55 4.5 19Z" fill="white" />
	</g>
</svg>
