<svg width="25" height="24" viewBox="0 0 25 24" fill="none" xmlns="http://www.w3.org/2000/svg">
	<mask id="mask0_3_658" style="mask-type:alpha" maskUnits="userSpaceOnUse" x="0" y="0" width="25" height="24">
		<rect x="0.5" width="24" height="24" fill="#D9D9D9" />
	</mask>
	<g mask="url(#mask0_3_658)">
		<path d="M13.5 21C13.2167 21 12.9792 20.9042 12.7875 20.7125C12.5958 20.5208 12.5 20.2833 12.5 20C12.5 19.7167 12.5958 19.4792 12.7875 19.2875C12.9792 19.0958 13.2167 19 13.5 19H19.5V5H13.5C13.2167 5 12.9792 4.90417 12.7875 4.7125C12.5958 4.52083 12.5 4.28333 12.5 4C12.5 3.71667 12.5958 3.47917 12.7875 3.2875C12.9792 3.09583 13.2167 3 13.5 3H19.5C20.05 3 20.5208 3.19583 20.9125 3.5875C21.3042 3.97917 21.5 4.45 21.5 5V19C21.5 19.55 21.3042 20.0208 20.9125 20.4125C20.5208 20.8042 20.05 21 19.5 21H13.5ZM11.675 13H4.5C4.21667 13 3.97917 12.9042 3.7875 12.7125C3.59583 12.5208 3.5 12.2833 3.5 12C3.5 11.7167 3.59583 11.4792 3.7875 11.2875C3.97917 11.0958 4.21667 11 4.5 11H11.675L9.8 9.125C9.61667 8.94167 9.525 8.71667 9.525 8.45C9.525 8.18333 9.61667 7.95 9.8 7.75C9.98333 7.55 10.2167 7.44583 10.5 7.4375C10.7833 7.42917 11.025 7.525 11.225 7.725L14.8 11.3C15 11.5 15.1 11.7333 15.1 12C15.1 12.2667 15 12.5 14.8 12.7L11.225 16.275C11.025 16.475 10.7875 16.5708 10.5125 16.5625C10.2375 16.5542 10 16.45 9.8 16.25C9.61667 16.05 9.52917 15.8125 9.5375 15.5375C9.54583 15.2625 9.64167 15.0333 9.825 14.85L11.675 13Z" fill="white" />
	</g>
</svg>
