<svg width="24" height="25" viewBox="0 0 24 25" fill="none" xmlns="http://www.w3.org/2000/svg">
	<mask id="mask0_33_294" style="mask-type:alpha" maskUnits="userSpaceOnUse" x="0" y="0" width="24" height="25">
		<rect y="0.5" width="24" height="24" fill="current" />
	</mask>
	<g mask="url(#mask0_33_294)">
		<path d="M12 12.425L10.3 13.725C10.2 13.8083 10.1 13.8125 10 13.7375C9.9 13.6625 9.86667 13.5667 9.9 13.45L10.55 11.35L8.8 9.95C8.71667 9.86667 8.69167 9.77083 8.725 9.6625C8.75833 9.55417 8.83333 9.5 8.95 9.5H11.1L11.75 7.45C11.7833 7.33333 11.8667 7.275 12 7.275C12.1333 7.275 12.2167 7.33333 12.25 7.45L12.9 9.5H15.025C15.1417 9.5 15.2208 9.55417 15.2625 9.6625C15.3042 9.77083 15.2833 9.86667 15.2 9.95L13.425 11.35L14.075 13.45C14.1083 13.5667 14.075 13.6625 13.975 13.7375C13.875 13.8125 13.775 13.8083 13.675 13.725L12 12.425ZM12 21.5L7.325 23.05C6.99167 23.1667 6.6875 23.125 6.4125 22.925C6.1375 22.725 6 22.4583 6 22.125V15.775C5.36667 15.075 4.875 14.275 4.525 13.375C4.175 12.475 4 11.5167 4 10.5C4 8.26667 4.775 6.375 6.325 4.825C7.875 3.275 9.76667 2.5 12 2.5C14.2333 2.5 16.125 3.275 17.675 4.825C19.225 6.375 20 8.26667 20 10.5C20 11.5167 19.825 12.475 19.475 13.375C19.125 14.275 18.6333 15.075 18 15.775V22.125C18 22.4583 17.8625 22.725 17.5875 22.925C17.3125 23.125 17.0083 23.1667 16.675 23.05L12 21.5ZM12 16.5C13.6667 16.5 15.0833 15.9167 16.25 14.75C17.4167 13.5833 18 12.1667 18 10.5C18 8.83333 17.4167 7.41667 16.25 6.25C15.0833 5.08333 13.6667 4.5 12 4.5C10.3333 4.5 8.91667 5.08333 7.75 6.25C6.58333 7.41667 6 8.83333 6 10.5C6 12.1667 6.58333 13.5833 7.75 14.75C8.91667 15.9167 10.3333 16.5 12 16.5Z" fill="current" />
	</g>
</svg>
