<svg width="32" height="32" viewBox="0 0 32 32" fill="none" xmlns="http://www.w3.org/2000/svg">
	<mask id="mask0_2_536" style="mask-type:alpha" maskUnits="userSpaceOnUse" x="0" y="0" width="32" height="32">
		<rect width="32" height="32" fill="#D9D9D9" />
	</mask>
	<g mask="url(#mask0_2_536)">
		<path d="M10.6667 22.8999V9.09993C10.6667 8.72216 10.8 8.40549 11.0667 8.14993C11.3334 7.89438 11.6445 7.7666 12 7.7666C12.1111 7.7666 12.2278 7.78327 12.35 7.8166C12.4722 7.84993 12.5889 7.89993 12.7 7.9666L23.5667 14.8666C23.7667 14.9999 23.9167 15.1666 24.0167 15.3666C24.1167 15.5666 24.1667 15.7777 24.1667 15.9999C24.1667 16.2222 24.1167 16.4333 24.0167 16.6333C23.9167 16.8333 23.7667 16.9999 23.5667 17.1333L12.7 24.0333C12.5889 24.0999 12.4722 24.1499 12.35 24.1833C12.2278 24.2166 12.1111 24.2333 12 24.2333C11.6445 24.2333 11.3334 24.1055 11.0667 23.8499C10.8 23.5944 10.6667 23.2777 10.6667 22.8999Z" fill="#1F2937" />
	</g>
</svg>
