<svg width="25" height="25" viewBox="0 0 25 25" fill="current" xmlns="http://www.w3.org/2000/svg">
	<mask id="mask0_143_116" style="mask-type:alpha" maskUnits="userSpaceOnUse" x="0" y="0" width="25" height="25">
		<rect x="0.497879" y="0.205811" width="24" height="24" />
	</mask>
	<g mask="url(#mask0_143_116)">
		<path d="M12.4979 20.2058C10.2645 20.2058 8.37288 19.4308 6.82288 17.8808C5.27288 16.3308 4.49788 14.4391 4.49788 12.2058C4.49788 9.97248 5.27288 8.08081 6.82288 6.53081C8.37288 4.98081 10.2645 4.20581 12.4979 4.20581C13.6479 4.20581 14.7479 4.44331 15.7979 4.91831C16.8479 5.39331 17.7479 6.07248 18.4979 6.95581V5.20581C18.4979 4.92248 18.5937 4.68498 18.7854 4.49331C18.977 4.30164 19.2145 4.20581 19.4979 4.20581C19.7812 4.20581 20.0187 4.30164 20.2104 4.49331C20.402 4.68498 20.4979 4.92248 20.4979 5.20581V10.2058C20.4979 10.4891 20.402 10.7266 20.2104 10.9183C20.0187 11.11 19.7812 11.2058 19.4979 11.2058H14.4979C14.2145 11.2058 13.977 11.11 13.7854 10.9183C13.5937 10.7266 13.4979 10.4891 13.4979 10.2058C13.4979 9.92248 13.5937 9.68498 13.7854 9.49331C13.977 9.30164 14.2145 9.20581 14.4979 9.20581H17.6979C17.1645 8.27248 16.4354 7.53914 15.5104 7.00581C14.5854 6.47248 13.5812 6.20581 12.4979 6.20581C10.8312 6.20581 9.41455 6.78914 8.24788 7.95581C7.08121 9.12248 6.49788 10.5391 6.49788 12.2058C6.49788 13.8725 7.08121 15.2891 8.24788 16.4558C9.41455 17.6225 10.8312 18.2058 12.4979 18.2058C13.6312 18.2058 14.6687 17.9183 15.6104 17.3433C16.552 16.7683 17.2812 15.9975 17.7979 15.0308C17.9312 14.7975 18.1187 14.635 18.3604 14.5433C18.602 14.4516 18.8479 14.4475 19.0979 14.5308C19.3645 14.6141 19.5562 14.7891 19.6729 15.0558C19.7895 15.3225 19.7812 15.5725 19.6479 15.8058C18.9645 17.1391 17.9895 18.2058 16.7229 19.0058C15.4562 19.8058 14.0479 20.2058 12.4979 20.2058Z" />
	</g>
</svg>
