<svg width="24" height="25" viewBox="0 0 24 25" fill="none" xmlns="http://www.w3.org/2000/svg">
	<mask id="mask0_12_228" style="mask-type:alpha" maskUnits="userSpaceOnUse" x="0" y="0" width="24" height="25">
		<rect y="0.5" width="24" height="24" fill="#D9D9D9" />
	</mask>
	<g mask="url(#mask0_12_228)">
		<path d="M8.00005 19.5C7.71672 19.5 7.47922 19.4042 7.28755 19.2125C7.09588 19.0208 7.00005 18.7833 7.00005 18.5C7.00005 18.2167 7.09588 17.9792 7.28755 17.7875C7.47922 17.5958 7.71672 17.5 8.00005 17.5H14.1C15.15 17.5 16.0625 17.1667 16.8375 16.5C17.6125 15.8333 18 15 18 14C18 13 17.6125 12.1667 16.8375 11.5C16.0625 10.8333 15.15 10.5 14.1 10.5H7.80005L9.70005 12.4C9.88338 12.5833 9.97505 12.8167 9.97505 13.1C9.97505 13.3833 9.88338 13.6167 9.70005 13.8C9.51672 13.9833 9.28338 14.075 9.00005 14.075C8.71672 14.075 8.48338 13.9833 8.30005 13.8L4.70005 10.2C4.60005 10.1 4.52922 9.99167 4.48755 9.875C4.44588 9.75833 4.42505 9.63333 4.42505 9.5C4.42505 9.36667 4.44588 9.24167 4.48755 9.125C4.52922 9.00833 4.60005 8.9 4.70005 8.8L8.30005 5.2C8.48338 5.01667 8.71672 4.925 9.00005 4.925C9.28338 4.925 9.51672 5.01667 9.70005 5.2C9.88338 5.38333 9.97505 5.61667 9.97505 5.9C9.97505 6.18333 9.88338 6.41667 9.70005 6.6L7.80005 8.5H14.1C15.7167 8.5 17.1042 9.025 18.2625 10.075C19.4209 11.125 20 12.4333 20 14C20 15.5667 19.4209 16.875 18.2625 17.925C17.1042 18.975 15.7167 19.5 14.1 19.5H8.00005Z" fill="#1C1B1F" />
	</g>
</svg>
